<svg width="82" height="80" viewBox="0 0 82 80" fill="none" xmlns="http://www.w3.org/2000/svg">
<path fill-rule="evenodd" clip-rule="evenodd" d="M40.7117 0C18.1992 0 0 18.3333 0 41.0142C0 59.1442 11.6608 74.4908 27.8375 79.9225C29.86 80.3308 30.6008 79.04 30.6008 77.9542C30.6008 77.0033 30.5342 73.7442 30.5342 70.3483C19.2092 72.7933 16.8508 65.4592 16.8508 65.4592C15.0308 60.7058 12.3342 59.4842 12.3342 59.4842C8.6275 56.9717 12.6042 56.9717 12.6042 56.9717C16.7158 57.2433 18.8733 61.1817 18.8733 61.1817C22.5125 67.4283 28.3767 65.6633 30.7358 64.5767C31.0725 61.9283 32.1517 60.095 33.2975 59.0767C24.265 58.1258 14.7617 54.595 14.7617 38.8408C14.7617 34.3592 16.3783 30.6925 18.94 27.8408C18.5358 26.8225 17.12 22.6117 19.345 16.9758C19.345 16.9758 22.7825 15.8892 30.5333 21.1858C33.8517 20.2881 37.274 19.8313 40.7117 19.8275C44.1492 19.8275 47.6533 20.3033 50.8892 21.1858C58.6408 15.8892 62.0783 16.9758 62.0783 16.9758C64.3033 22.6117 62.8867 26.8225 62.4825 27.8408C65.1117 30.6925 66.6617 34.3592 66.6617 38.8408C66.6617 54.595 57.1583 58.0575 48.0583 59.0767C49.5417 60.3667 50.8217 62.8108 50.8217 66.6817C50.8217 72.1817 50.755 76.5958 50.755 77.9533C50.755 79.04 51.4967 80.3308 53.5183 79.9233C69.695 74.49 81.3558 59.1442 81.3558 41.0142C81.4225 18.3333 63.1567 0 40.7117 0Z" fill="white"/>
</svg>
